<?xml version="1.0" encoding="UTF-8"?>
<svg width="512px" height="512px" enable-background="new 0 0 512 512" version="1.1" viewBox="0 0 512 512" xml:space="preserve" xmlns="http://www.w3.org/2000/svg">
<path d="m448.3 424.7-113.3-113.4c20.8-26 33.3-59.1 33.3-95.1 0-84.1-68.1-152.2-152-152.2-84 0-152 68.2-152 152.2s68.1 152.2 152 152.2c36.2 0 69.4-12.7 95.5-33.8l113.2 113.4 23.3-23.3zm-328.2-112.1c-25.7-25.7-39.8-59.9-39.8-96.3s14.2-70.6 39.8-96.3 59.9-40 96.2-40 70.5 14.2 96.2 39.9 39.8 59.9 39.8 96.3-14.2 70.6-39.8 96.3c-25.7 25.7-59.9 39.9-96.2 39.9-36.3 0.1-70.5-14.1-96.2-39.8z" fill="#ff6e14"/>
</svg>
