<?xml version="1.0" standalone="no"?>
<!DOCTYPE svg PUBLIC "-//W3C//DTD SVG 20010904//EN"
 "http://www.w3.org/TR/2001/REC-SVG-20010904/DTD/svg10.dtd">
<svg version="1.0" xmlns="http://www.w3.org/2000/svg"
 width="700.000000pt" height="700.000000pt" viewBox="0 0 700.000000 700.000000"
 preserveAspectRatio="xMidYMid meet">
<metadata>
Created by potrace 1.14, written by Peter Selinger 2001-2017
</metadata>
<g transform="translate(0.000000,700.000000) scale(0.100000,-0.100000)"
fill="#000000" stroke="none">
<path d="M2957 6978 c-25 -25 -102 -209 -112 -268 -13 -72 -51 -119 -175 -218
-133 -105 -256 -208 -319 -267 l-53 -50 6 -66 c13 -141 87 -417 172 -635 25
-65 48 -127 51 -138 22 -72 214 -379 259 -415 15 -12 81 -38 148 -60 196 -63
289 -104 421 -184 l80 -48 112 2 c70 1 116 6 122 13 5 6 12 27 15 46 12 62 26
80 55 74 61 -14 238 -125 324 -203 52 -47 68 -84 199 -451 119 -334 132 -356
320 -542 136 -135 153 -144 196 -108 21 18 23 23 13 52 -12 34 -45 96 -123
230 -27 47 -63 133 -92 225 -81 250 -177 536 -191 568 -7 17 -23 55 -35 85
-52 128 -184 326 -309 462 -93 101 -132 119 -281 133 -36 3 -85 7 -110 10 -41
4 -74 7 -215 20 -214 20 -418 66 -470 107 -41 32 -97 123 -185 303 -94 192
-149 337 -151 398 -3 57 10 76 133 208 181 195 260 312 298 439 32 109 28 270
-8 286 -41 18 -72 15 -95 -8z"/>
<path d="M3243 6265 c-142 -45 -182 -81 -222 -197 -26 -77 -32 -107 -38 -215
-9 -152 24 -320 81 -418 13 -22 46 -56 73 -75 46 -34 51 -35 134 -34 148 1
259 49 312 135 33 55 61 162 59 234 -1 83 -30 203 -67 274 -14 28 -28 72 -31
99 -10 82 -21 99 -75 117 -33 11 -58 28 -79 55 -38 48 -62 52 -147 25z"/>
<path d="M4190 5004 c-14 -36 4 -65 109 -178 76 -83 91 -104 101 -149 7 -28
26 -95 43 -147 31 -100 33 -103 142 -195 32 -27 63 -54 69 -60 6 -5 52 -46
101 -90 106 -94 83 -73 231 -210 99 -92 390 -374 634 -615 31 -30 82 -86 114
-125 32 -38 99 -115 150 -169 135 -147 136 -148 126 -165 -7 -14 -49 -54 -190
-182 -76 -69 -185 -151 -225 -170 -23 -11 -58 -39 -76 -62 -45 -56 -171 -185
-656 -673 -224 -226 -439 -444 -477 -485 -38 -41 -144 -151 -235 -244 -281
-289 -436 -467 -557 -643 -27 -39 -54 -72 -60 -72 -6 0 -21 12 -35 26 -13 15
-88 80 -166 145 -142 118 -235 217 -321 339 -93 133 -166 189 -285 219 -39 11
-101 30 -137 43 -36 13 -71 24 -77 22 -7 -1 -20 -2 -28 -3 -23 -2 -18 -30 11
-65 64 -77 212 -221 380 -371 49 -44 159 -148 244 -232 85 -84 184 -179 219
-211 l63 -58 -37 -40 c-103 -108 -123 -147 -90 -174 24 -20 112 -6 206 33 l84
35 66 -34 c81 -42 105 -43 112 -8 6 36 -9 88 -44 150 l-29 51 28 30 c35 40
256 274 397 422 171 180 472 478 570 566 115 103 232 220 320 319 39 43 75 84
80 90 38 41 85 105 85 114 0 18 168 189 260 265 102 85 162 146 297 303 182
213 310 336 438 421 l59 40 73 -34 c39 -19 90 -37 111 -40 34 -4 42 -2 60 22
19 24 20 30 8 54 -8 14 -37 51 -65 81 l-50 55 57 59 c79 82 81 84 97 116 23
45 10 62 -56 75 -28 6 -89 -21 -158 -68 -84 -58 -97 -52 -318 163 -170 166
-354 338 -398 372 -48 37 -71 68 -115 154 -45 88 -30 73 -735 770 -460 454
-500 486 -525 418z"/>
<path d="M2595 4974 c-15 -8 -45 -19 -68 -26 -49 -14 -67 -27 -161 -115 -393
-368 -605 -577 -1136 -1122 -242 -248 -285 -297 -283 -319 8 -95 25 -70 -165
-240 -90 -81 -93 -81 -143 -18 -12 16 -40 41 -62 57 -38 27 -41 28 -59 13 -10
-10 -18 -27 -18 -38 0 -25 32 -86 79 -151 l33 -47 -55 -54 c-62 -61 -75 -87
-56 -110 21 -25 92 -9 157 36 l55 39 36 -34 c20 -19 58 -48 85 -65 69 -44 278
-255 377 -381 46 -58 133 -173 193 -254 168 -227 536 -583 781 -756 107 -75
274 -159 345 -173 14 -2 46 -9 73 -15 26 -6 89 -13 140 -16 l92 -5 67 54 c69
55 124 75 169 61 12 -4 55 -9 96 -10 41 -2 79 -7 84 -12 5 -5 20 -51 33 -101
14 -59 31 -101 46 -117 54 -58 210 -75 390 -42 68 13 143 42 220 86 47 27 125
65 173 85 171 68 207 103 207 201 0 41 5 51 41 88 71 72 72 76 65 181 -3 52
-8 100 -11 108 -2 7 -6 27 -8 43 -5 29 -8 46 -27 130 -76 336 -114 438 -342
905 -144 295 -204 433 -237 550 -8 25 -17 56 -22 70 -7 21 -18 75 -33 155 -2
11 -7 43 -10 70 -4 28 -10 64 -13 80 -3 17 -6 161 -7 320 -1 160 -5 298 -9
307 -12 23 -63 39 -133 40 -158 4 -264 -28 -408 -125 -175 -118 -281 -251
-306 -384 -22 -123 -32 -744 -15 -983 12 -174 10 -206 -25 -303 -25 -70 -79
-294 -106 -437 -17 -93 -59 -244 -89 -325 -54 -143 -223 -430 -262 -442 -11
-4 -17 15 -28 97 -4 35 -16 56 -52 95 -25 28 -69 82 -98 120 -123 165 -279
326 -585 605 -71 65 -195 177 -212 191 -36 32 -161 144 -188 169 -15 14 -60
54 -100 90 -40 36 -78 70 -84 75 -15 14 -160 139 -165 142 -18 12 357 391 563
568 92 79 265 256 452 464 148 164 360 378 528 535 257 238 305 303 274 371
-13 30 -40 37 -73 19z"/>
</g>
</svg>
