<?xml version="1.0" encoding="UTF-8" standalone="no"?>
<svg
   id="svg8"
   version="1.1"
   viewBox="0 0 65.616665 80.433337"
   height="304"
   width="248"
   sodipodi:docname="pdf-icon-mosaico.svg"
   xml:space="preserve"
   inkscape:version="1.3 (0e150ed6c4, 2023-07-21)"
   inkscape:export-filename="pdf-icon-mosaico.webp"
   inkscape:export-xdpi="48"
   inkscape:export-ydpi="48"
   xmlns:inkscape="http://www.inkscape.org/namespaces/inkscape"
   xmlns:sodipodi="http://sodipodi.sourceforge.net/DTD/sodipodi-0.dtd"
   xmlns="http://www.w3.org/2000/svg"
   xmlns:svg="http://www.w3.org/2000/svg"
   xmlns:rdf="http://www.w3.org/1999/02/22-rdf-syntax-ns#"
   xmlns:cc="http://creativecommons.org/ns#"
   xmlns:dc="http://purl.org/dc/elements/1.1/"><sodipodi:namedview
     id="namedview1"
     pagecolor="#ffffff"
     bordercolor="#000000"
     borderopacity="0.25"
     inkscape:showpageshadow="2"
     inkscape:pageopacity="0.0"
     inkscape:pagecheckerboard="0"
     inkscape:deskcolor="#d1d1d1"
     inkscape:zoom="1.5905059"
     inkscape:cx="-6.9160385"
     inkscape:cy="168.18548"
     inkscape:window-width="1920"
     inkscape:window-height="1017"
     inkscape:window-x="1358"
     inkscape:window-y="-8"
     inkscape:window-maximized="1"
     inkscape:current-layer="g3"
     inkscape:export-bgcolor="#ffffff00" /><view
     id="pdfcol-view"
     viewBox="0 0 70 0.01" /><view
     id="pdfgrey-view"
     viewBox="0 104 40 200" /><defs
     id="defs2" /><metadata
     id="metadata5"><rdf:RDF><cc:Work
         rdf:about=""><dc:format>image/svg+xml</dc:format><dc:type
           rdf:resource="http://purl.org/dc/dcmitype/StillImage" /></cc:Work></rdf:RDF></metadata><rect
     y="0"
     x="0"
     height="87.632889"
     width="63.817913"
     id="rect6858"
     style="opacity:0;fill:#09a842;fill-opacity:1;stroke:none;stroke-width:0.099;stroke-miterlimit:4;stroke-dasharray:none;stroke-opacity:0.745098" /><style
     id="style817">&#10;     .icon {&#10;     }&#10;  </style><g
     id="g3"
     transform="translate(0.94311407,1.7098245)"><rect
       ry="11.88"
       y="0.25083923"
       x="0.25083846"
       height="70.290001"
       width="57.419998"
       style="fill:#ffffff;fill-opacity:1;stroke:#000000;stroke-width:0.495;stroke-miterlimit:4;stroke-dasharray:none;stroke-opacity:1"
       id="fondocol" /><rect
       ry="1.1364099"
       y="45.451752"
       x="10.606532"
       height="2.2728198"
       width="36.758678"
       style="opacity:0.494;fill:#c8beb7;fill-opacity:1;stroke:#000000;stroke-width:0.166725;stroke-miterlimit:4;stroke-dasharray:none;stroke-opacity:1"
       rx="0.79516739"
       id="colriga1" /><rect
       rx="0.79516739"
       style="opacity:0.494;fill:#c8beb7;fill-opacity:1;stroke:#000000;stroke-width:0.166725;stroke-miterlimit:4;stroke-dasharray:none;stroke-opacity:1"
       width="36.758678"
       height="2.2728198"
       x="10.606532"
       y="50.129181"
       ry="1.1364099"
       id="colriga2" /><rect
       ry="1.1364099"
       y="54.806641"
       x="10.606532"
       height="2.2728198"
       width="36.758678"
       style="opacity:0.494;fill:#c8beb7;fill-opacity:1;stroke:#000000;stroke-width:0.166725;stroke-miterlimit:4;stroke-dasharray:none;stroke-opacity:1"
       rx="0.79516739"
       id="colriga3" /><rect
       rx="0.79516739"
       style="opacity:0.494;fill:#c8beb7;fill-opacity:1;stroke:#000000;stroke-width:0.166725;stroke-miterlimit:4;stroke-dasharray:none;stroke-opacity:1"
       width="36.758678"
       height="2.2728198"
       x="10.606532"
       y="59.4841"
       ry="1.1364099"
       id="colriga4" /><circle
       style="display:inline;fill:#fffeff;fill-opacity:1;stroke:#000000;stroke-width:0.425534;stroke-miterlimit:4;stroke-dasharray:none;stroke-opacity:1"
       cx="47.912708"
       cy="61.195953"
       r="15.601625"
       id="colcircle" /><g
       id="g2"
       transform="translate(0.22678569,-104.69942)"><path
         d="m -0.01030123,134.53274 v 19.02158 c 8.55646083,-0.0623 15.38508423,0.13914 23.62198323,0.13914 5.348663,0 9.654688,-4.26227 9.654688,-9.55657 0,-5.2943 -4.306025,-9.55657 -9.654688,-9.55657 -7.936711,0.008 -16.3575516,-0.0558 -23.62198323,-0.0476 z"
         style="display:inline;fill:#ff0000;fill-opacity:1;stroke:none;stroke-width:0.432968;stroke-miterlimit:4;stroke-dasharray:none;stroke-opacity:1"
         id="colpdffondo" /><text
         transform="scale(0.97521549,1.0254144)"
         y="144.38478"
         x="3.4385211"
         style="font-style:normal;font-weight:normal;font-size:11.46px;line-height:1.25;font-family:sans-serif;letter-spacing:0px;word-spacing:0px;fill:#ffffff;fill-opacity:1;stroke:none;stroke-width:0.2865"
         xml:space="preserve"
         id="colpdf"><tspan
           style="font-weight:bold;fill:#ffffff;stroke-width:0.2865"
           y="144.38478"
           x="3.4385211"
           id="tspan5725">PDF</tspan></text></g><path
       d="m 45.272542,51.666293 v 11.59887 c -0.722819,-0.006 -1.553934,-0.0109 -2.740142,-0.0149 l 4.47972,6.85049 c 0.498396,0.76215 1.300484,0.76215 1.79888,0 l 4.480334,-6.85049 c -1.57015,0.0233 -1.95031,0.0299 -2.738885,0.0423 v -11.62626 c -5.21327,-0.0281 -2.97593,-0.008 -5.279907,7e-5 z"
       style="fill:#ff6e14;fill-opacity:1;stroke:#000000;stroke-width:0.198;stroke-miterlimit:4;stroke-dasharray:none;stroke-opacity:1"
       id="colfrecciaverdona" /><rect
       style="fill:#f3ffff;fill-opacity:1;stroke:none;stroke-width:0.099;stroke-miterlimit:4;stroke-dasharray:none;stroke-opacity:1"
       width="2.1187694"
       height="0.88728034"
       x="36.786583"
       y="22.457787"
       rx="0"
       id="collogorett2" /><rect
       rx="0"
       y="23.566879"
       x="36.786583"
       height="0.88728034"
       width="2.1187694"
       id="rect6528"
       style="fill:#f3ffff;fill-opacity:1;stroke:none;stroke-width:0.099;stroke-miterlimit:4;stroke-dasharray:none;stroke-opacity:1" /><rect
       rx="0"
       y="21.348686"
       x="36.786583"
       height="0.88728034"
       width="2.1187694"
       id="rect6530"
       style="fill:#f3ffff;fill-opacity:1;stroke:none;stroke-width:0.099;stroke-miterlimit:4;stroke-dasharray:none;stroke-opacity:1" /><rect
       rx="0"
       y="22.457787"
       x="52.254223"
       height="0.88728034"
       width="1.891791"
       id="rect6532"
       style="fill:#f3ffff;fill-opacity:1;stroke:none;stroke-width:0.099;stroke-miterlimit:4;stroke-dasharray:none;stroke-opacity:1" /><rect
       style="fill:#f3ffff;fill-opacity:1;stroke:none;stroke-width:0.099;stroke-miterlimit:4;stroke-dasharray:none;stroke-opacity:1"
       id="rect6534"
       width="1.891791"
       height="0.88728034"
       x="52.254223"
       y="23.566879"
       rx="0" /><rect
       style="fill:#f3ffff;fill-opacity:1;stroke:none;stroke-width:0.099;stroke-miterlimit:4;stroke-dasharray:none;stroke-opacity:1"
       id="rect6536"
       width="1.891791"
       height="0.88728034"
       x="52.254223"
       y="21.348686"
       rx="0" /><g
       style="clip-rule:evenodd;fill-rule:evenodd;stroke-linejoin:round;stroke-miterlimit:2"
       id="g1"
       transform="matrix(0.0461442,0,0,0.04486907,5.3350123,1.4580129)"><path
         fill-rule="nonzero"
         stroke="#000000"
         d="m 324.4,605.2 c -2.721,-2.617 -5.297,-4.752 -5.721,-4.752 -0.435,0 -2.625,0.881 -4.862,1.93 -3.592,1.689 -4.209,1.809 -5.019,1.001 -1.33,-1.327 -0.581,-3.498 2.37,-6.851 l 2.516,-2.859 -3.181,-3.112 a 35.515,35.515 0 0 1 -4.717,-5.754 c -2.455,-4.185 -8.962,-9.698 -12.01,-10.18 -2.177,-0.35 -3.798,-1.592 -11.1,-8.576 -9.724,-9.3 -15.36,-15.41 -15.36,-16.65 0,-1.23 1.149,-1.93 4.717,-2.81 2.903,-0.724 3.338,-0.675 6.386,0.808 1.79,0.881 4.402,2.774 5.781,4.198 1.379,1.435 7.813,7.623 14.28,13.75 6.483,6.127 12.38,12.05 13.12,13.12 0.75,1.086 3.12,3.51 5.285,5.392 l 3.931,3.389 2.225,-2.292 a 56.222,56.222 0 0 1 5.66,-4.825 c 1.887,-1.387 4.523,-3.884 5.854,-5.548 1.331,-1.664 5.721,-6.2 9.748,-10.08 a 258.773,258.773 0 0 0 12.72,-13.3 c 2.975,-3.413 5.866,-6.694 6.41,-7.273 1.367,-1.399 11.67,-2.34 13.07,-1.182 1.85,1.532 0.774,3.932 -2.504,5.645 -1.971,1.049 -8.648,7.153 -19.08,17.48 a 1550.37,1550.37 0 0 1 -19.53,19.11 89.415,89.415 0 0 0 -5.854,5.958 l -2.346,2.726 3.556,3.341 c 2.987,2.835 3.483,3.582 3.072,4.825 l -1.197,4.029 c -0.907,3.112 -1.536,4.125 -2.516,4.101 -0.423,0 -2.987,-2.147 -5.709,-4.752 z m -66.95,-61.24 c -2.02,-2.243 -0.351,-4.222 7.015,-8.262 10.64,-5.85 16.96,-9.927 21.5,-13.88 2.383,-2.087 5.152,-4.113 6.144,-4.535 1.959,-0.808 2.903,-2.256 1.875,-2.883 a 16.889,16.889 0 0 0 -3.943,-0.724 c -3.084,-0.313 -3.483,-0.181 -5.394,1.64 -2.661,2.557 -5.189,2.581 -15.55,0.097 -8.95,-2.147 -12.29,-3.353 -21.21,-7.635 -12.77,-6.139 -18.23,-14.64 -15.55,-24.24 0.895,-3.184 6.616,-8.347 10.79,-9.722 6.156,-2.05 26.5,-1.218 38.84,1.568 18.24,4.113 27,6.815 33.79,10.4 3.81,2.014 7.595,3.582 8.648,3.582 2.431,0 8.381,-2.436 15.32,-6.272 11.67,-6.441 24.55,-11.53 34.82,-13.75 9.361,-2.002 22.96,-2.256 26.21,-0.459 2.443,1.363 6.398,6.031 7.039,8.323 0.847,3.003 0.508,9.83 -0.653,12.81 -2.661,6.972 -14.78,14.96 -28.88,19.06 -6.495,1.882 -7.087,1.954 -10.3,1.182 -2.866,-0.687 -3.834,-0.675 -6.047,0.097 -4.475,1.544 -3.87,3.522 2.6,8.323 1.826,1.339 5.237,4.222 7.559,6.393 2.322,2.171 6.41,5.235 9.071,6.815 5.14,3.052 6.809,5.138 5.733,7.141 -1.052,1.954 -3.314,2.436 -7.051,1.472 -1.85,-0.483 -6.652,-1.327 -10.68,-1.894 -10.55,-1.52 -11.55,-1.882 -16.93,-6.2 -7.208,-5.79 -17.75,-12.4 -20.5,-12.86 -2.782,-0.483 -13.32,1.628 -17.78,3.534 -3.229,1.387 -18,10.05 -20.58,12.09 -0.919,0.712 -4.777,2.111 -8.587,3.1 -3.822,1.001 -9.942,2.847 -13.63,4.113 -8.744,3.052 -12.01,3.413 -13.67,1.592 z m -8.345,-11.6 c -8.406,-8.13 -23.34,-24.61 -25.2,-27.79 -2.008,-3.474 -12.26,-14 -16.85,-17.33 a 30.117,30.117 0 0 1 -5.527,-5.38 c -3.483,-4.752 -9.627,-10.28 -11.41,-10.28 -0.847,0 -2.794,0.941 -4.33,2.123 -3.302,2.497 -5.6,3.184 -7.861,2.328 -2.624,-0.989 -2.056,-2.991 1.875,-6.646 2.117,-1.978 3.507,-3.787 3.507,-4.608 0,-0.724 -1.004,-2.533 -2.225,-4.005 -2.54,-3.015 -2.806,-4.704 -0.919,-5.717 1.064,-0.567 1.911,-0.398 4.451,0.917 6.047,3.16 8.418,2.002 20,-9.879 4.91,-5.018 10,-10.47 11.32,-12.12 1.33,-1.652 5.624,-5.669 9.555,-8.95 7.886,-6.562 10.46,-9.215 14.32,-14.78 5.213,-7.478 33.94,-35.46 43.5,-42.34 5.297,-3.836 7.075,-5.5 8.103,-7.635 0.725,-1.508 1.33,-3.052 1.33,-3.413 0,-0.712 9.893,-9.891 14.45,-13.42 3.507,-2.714 3.882,-4.053 1.814,-6.284 -2.225,-2.364 -3.374,-6.127 -2.274,-7.442 1.125,-1.375 1.415,-1.291 5.055,1.58 l 3.266,2.581 2.685,-1.906 c 1.476,-1.049 4.789,-2.654 7.341,-3.57 8.043,-2.871 8.635,-0.893 1.814,6.115 l -4.681,4.801 4.511,4.198 c 12.03,11.17 46.27,45.98 47.65,48.44 0.278,0.482 2.153,2.014 4.148,3.377 1.996,1.375 7.946,6.586 13.22,11.59 5.273,5.006 10.46,9.577 11.54,10.16 2.54,1.351 6.023,8.347 5.805,11.64 -0.158,2.05 0.326,2.75 4.959,7.478 2.806,2.871 6.241,6.55 7.62,8.166 2.37,2.774 9.76,9.722 17.79,16.72 3.096,2.678 3.725,2.991 4.33,2.171 1.935,-2.617 7.414,-4.752 9.397,-3.691 1.887,1.013 1.415,2.75 -1.693,6.212 -2.842,3.136 -2.878,3.257 -1.875,4.789 a 6.564,6.564 0 0 1 0.834,3.679 c -0.194,1.773 -0.483,2.135 -2.008,2.304 a 5.995,5.995 0 0 1 -3.386,-0.833 c -1.935,-1.279 -2.407,-1.013 -8.732,4.921 -3.87,3.643 -4.281,4.258 -3.653,5.428 0.382,0.703 0.62,1.474 0.702,2.268 0,0.531 -3.919,4.752 -8.708,9.408 -11.89,11.51 -12.12,11.77 -14.83,15.74 -3.084,4.499 -18.5,19.53 -20.61,20.03 -2.177,0.543 -3.12,-0.18 -2.661,-2.014 0.327,-1.327 0.12,-1.592 -1.536,-1.93 -3.943,-0.771 -2.782,-2.654 8.732,-14.15 a 1572.59,1572.59 0 0 0 17.02,-17.25 c 3.507,-3.631 7.946,-8.081 9.881,-9.891 1.911,-1.785 6.422,-6.405 10.01,-10.24 l 6.531,-6.984 -6.531,-5.995 a 479.03,479.03 0 0 0 -11.04,-9.842 96.027,96.027 0 0 1 -8.26,-8.13 c -5.08,-5.778 -8.249,-8.853 -12.05,-11.68 -5.588,-4.173 -16.85,-16.46 -21.18,-23.16 -3.653,-5.645 -15.96,-19.67 -21.44,-24.43 -7.015,-6.091 -14.01,-13.46 -15.42,-16.22 -2.673,-5.211 -9.264,-12.91 -13.22,-15.41 a 106.135,106.135 0 0 1 -7.269,-5.428 l -4.717,-3.812 -1.814,2.014 c -0.992,1.11 -1.79,2.702 -1.79,3.558 0,2.81 -1.391,4.668 -6.616,8.841 -2.83,2.256 -8.019,7.273 -11.53,11.13 -8.793,9.71 -24.29,25.38 -27.36,27.67 -4.185,3.112 -18.02,16.02 -24.82,23.16 -13.91,14.57 -21.75,22.1 -24.48,23.48 -3.181,1.604 -11.48,8.009 -11.48,8.853 0,0.302 -1.596,2.135 -3.556,4.089 l -3.568,3.546 4.995,5.79 c 2.661,3.1 5.285,6.236 7.861,9.408 1.572,1.99 7.946,8.684 14.17,14.87 6.229,6.2 12.31,12.81 13.51,14.69 1.21,1.882 3.87,4.728 5.951,6.308 4.959,3.799 15.99,15.51 15.99,16.97 0,0.64 -0.677,1.592 -1.488,2.135 a 7.192,7.192 0 0 0 -2.213,2.545 c -1.21,2.654 -2.987,1.93 -8.769,-3.655 z m 519.005,-5.995 c -17.43,-1.061 -42.52,-6.658 -56.77,-12.66 -39.11,-16.45 -64.26,-54.58 -73.42,-111.2 -2.41,-14.96 -1.63,-57.28 1.38,-74.96 0.88,-5.102 1.87,-10.17 2.22,-11.25 0.67,-2.099 0.24,-4.065 -0.87,-4.065 -0.73,0 -7.34,4.113 -16.35,10.18 -2.98,1.99 -8.28,5.283 -11.77,7.297 -17.2,9.879 -24.43,17.19 -30.93,31.19 -2.6,5.609 -5.72,17.49 -6.64,25.29 -0.73,6.091 -1.66,7.744 -4.85,8.6 -3.33,0.88 -8.97,0.519 -10.41,-0.675 -1.21,-0.99 -1.19,-1.363 0.89,-16.81 2.78,-20.64 1.19,-42.2 -4.18,-56.65 -1.09,-2.943 -2.52,-3.498 -4.14,-1.592 -0.53,0.603 -2.47,3.679 -4.32,6.827 -8.06,13.73 -9.85,16.61 -11.47,18.41 -0.95,1.049 -3.989,5.187 -6.747,9.191 -3.931,5.705 -7.656,9.891 -17.13,19.25 -13.57,13.44 -19.71,18.03 -32.81,24.61 -17.75,8.877 -29.18,10.3 -43.23,5.355 -5.805,-2.038 -13.82,-8.974 -16.57,-14.32 -1.451,-2.835 -3.144,-9.336 -3.144,-12.03 0,-3.426 1.862,-9.553 4.777,-15.61 2.274,-4.752 3.846,-6.899 8.708,-11.97 5.116,-5.355 6.217,-6.2 8.103,-6.284 1.596,-0.061 2.274,0.18 2.443,0.928 0.122,0.567 -1.693,3.92 -3.991,7.454 -6.906,10.51 -9.047,17.26 -8.019,25.34 0.484,3.812 1.052,5.355 3.229,8.684 3.278,5.03 7.378,7.913 14.65,10.3 9.627,3.172 18.41,2.099 30.31,-3.667 7.789,-3.775 15.26,-9.468 25.11,-19.09 11.74,-11.46 18.41,-20.52 26.34,-35.78 3.084,-5.922 6.341,-11.94 7.231,-13.33 2.87,-4.511 8.83,-21.23 9.45,-26.42 0.31,-2.461 0.03,-3.522 -1.45,-6.296 -3.45,-6.272 -12.424,-13.73 -20.724,-17.19 -15.7,-6.513 -32.09,-4.427 -48.75,6.188 -7.16,4.559 -7.946,1.713 -1.27,-4.62 7.668,-7.261 14.49,-10.43 25.86,-12.01 7.765,-1.098 18.5,-0.735 24.58,0.808 6.652,1.713 16.364,7.442 23.584,13.96 5.49,4.921 7.18,6.948 10.96,13.07 6.28,10.17 7.7,13.12 10.14,21.08 3.71,12.071 5.32,20.75 5.72,30.64 0.22,4.994 0.58,9.203 0.84,9.36 0.25,0.157 3.27,-2.726 6.72,-6.405 7.83,-8.455 19.11,-17.25 27.62,-21.519 7.64,-3.836 26.43,-17.101 31.24,-22.05 6.48,-6.67 13.21,-18.941 15.88,-28.96 1.65,-6.212 2.45,-6.779 8.67,-6.236 5.01,0.458 8.28,1.809 9.2,3.836 0.64,1.411 0.22,2.569 -3.72,10.35 a 170.43,170.43 0 0 0 -7.44,17.33 537.84,537.84 0 0 1 -4.89,13.42 c -4.96,12.75 -7.47,28.51 -8.02,50.06 -0.58,23.12 1.26,39.37 7.1,62.85 4.08,16.37 9.15,26.95 22.17,46.35 5.19,7.732 9.26,11.99 16.67,17.45 8.81,6.489 9.49,6.875 20.68,11.94 8.18,3.691 17.22,6.67 30.89,10.2 12.32,3.172 57.88,7.84 68.38,6.984 1.94,-0.157 11.37,-0.845 21,-1.508 36.67,-2.581 45.74,-4.017 76.11,-12.12 15.59,-4.149 47.63,-16.78 55.62,-21.92 16.26,-10.45 27.01,-20.57 31.64,-29.77 4.95,-9.842 6.03,-19.12 3.08,-26.38 -2.72,-6.658 -9.63,-14.24 -17.88,-19.61 -5.01,-3.281 -9.78,-5.114 -17.17,-6.646 -9.39,-1.954 -8.91,-3.1 2.23,-5.199 13.73,-2.581 33.67,2.183 43.56,10.42 3.16,2.629 6.62,7.358 8.43,11.53 3.01,6.899 1.67,17.59 -3.5,28.26 -4.6,9.42 -14.01,20.63 -24.62,29.3 -7.5,6.127 -23.38,16.14 -31.62,19.93 -30.55,14.05 -68.09,25.37 -95.66,28.83 -24.52,3.088 -76.94,5.066 -98.93,3.715 z m -503.705,-55.81 c -6.918,-0.929 -14.15,-2.629 -15.47,-3.631 -0.447,-0.362 -0.726,-1.375 -0.629,-2.292 0.315,-2.581 3.483,-3.691 13.8,-4.776 5.031,-0.531 9.615,-1.327 10.17,-1.761 2.564,-2.014 4.306,-4.909 13.47,-22.62 4.233,-8.178 9.748,-15.21 13.01,-16.67 1.415,-0.615 6.204,-1.628 10.64,-2.231 7.62,-1.049 8.636,-1.049 18.44,-0.036 16.93,1.737 17.33,2.038 32.57,24.57 2.25,3.317 6.047,7.913 8.466,10.23 4.402,4.246 4.717,4.415 13.56,6.887 3.157,0.88 2.25,3.631 -1.863,5.693 -2.298,1.146 -11.79,2.28 -17.1,2.05 -4.535,-0.193 -11.9,-4.487 -19.21,-11.17 -4.838,-4.403 -5.721,-5.874 -5.733,-9.384 0,-2.955 -0.036,-2.991 -4.717,-6.513 a 57.082,57.082 0 0 0 -8.756,-5.355 c -5.08,-2.292 -14.51,-5.283 -15.48,-4.909 -0.459,0.181 -0.629,1.098 -0.459,2.292 0.242,1.592 -0.303,2.859 -2.564,6.248 -8.091,11.98 -10.58,16.17 -12.82,21.59 -1.536,3.715 -3.314,6.839 -4.753,8.323 -2.092,2.171 -2.854,2.485 -8.127,3.438 -6.628,1.206 -7.704,1.206 -16.45,0.024 z M 867.5,461.75 a 6.315,6.315 0 0 1 -2.7,-2.147 c -1.33,-2.473 -0.77,-9.637 1.51,-18.76 2.34,-9.444 2.26,-11.17 -0.51,-11.17 -3.33,0 -8.72,7.78 -13.5,19.47 -1.55,3.787 -2.82,7.346 -2.83,7.912 0,1.447 -1,2.087 -5.68,3.631 -4.5,1.496 -6.14,1.689 -6.7,0.76 -0.21,-0.326 1.23,-6.248 3.19,-13.16 1.96,-6.923 3.84,-14.08 4.18,-15.9 0.73,-3.86 -0.02,-5.898 -2.13,-5.898 -1.91,0 -5.44,2.545 -6.18,4.451 l -3.5,9.046 c -3.27,8.443 -4.97,11.4 -9.2,15.92 -3.5,3.751 -6.95,5.476 -11.03,5.488 -2.46,0.012 -3.39,-0.338 -5.28,-1.978 a 16.757,16.757 0 0 1 -3.22,-3.812 c -0.5,-0.989 -1.16,-1.809 -1.45,-1.809 -0.26,0 -1.8,1.242 -3.38,2.774 -4.71,4.475 -12.32,6.176 -17.25,3.824 -2.93,-1.387 -3.75,-2.955 -3.73,-7.165 l 0.02,-3.594 -2.79,2.617 c -7.08,6.562 -21.49,10.49 -33.4,9.083 -9.63,-1.122 -14.42,-1.327 -16.7,-0.688 -3.46,0.965 -5.84,0.145 -6.1,-2.05 -0.12,-1.07 -0.07,-2.153 0.15,-3.208 0.44,-1.773 3.9,-3.498 7.01,-3.498 2.24,0 2.42,-0.156 4.18,-3.98 3.97,-8.479 6.8,-24.68 5.99,-34.15 l -0.4,-4.801 5.25,-3.92 c 4.08,-3.028 5.47,-3.763 6.13,-3.22 0.62,0.519 0.85,2.822 0.85,8.817 0,11.53 -2.59,21.71 -8.51,33.52 -2.79,5.548 -3.95,8.479 -3.43,8.612 10.1,2.654 15.49,3.257 20.85,2.292 8.92,-1.604 14.03,-5.524 16.21,-12.42 0.99,-3.136 1.03,-4.137 0.34,-8.431 -1.57,-9.734 -4.9,-16.31 -12.06,-23.8 -5.6,-5.838 -7.91,-7.297 -15.72,-9.903 -5.38,-1.809 -6.48,-1.954 -14.72,-1.954 -14.03,0 -23.1,1.966 -34.29,7.442 -7.07,3.462 -11.53,7.587 -14.15,13.07 -5.59,11.72 -4.69,22.07 2.25,26.45 2.81,1.773 3.45,1.93 8.95,1.93 3.86,0 6.77,-0.349 8.24,-0.964 2.96,-1.23 3.4,-1.206 3.4,0.241 0,1.785 -5.49,5.03 -9.85,5.838 -11.08,2.05 -21.15,-2.822 -25.48,-12.3 -2.54,-5.524 -3.24,-11.46 -1.9,-16.09 2.52,-8.684 9.12,-16.28 19.4,-22.35 13.52,-7.961 20.56,-9.758 38.51,-9.867 13.56,-0.097 16.42,0.374 24.19,3.739 5.54,2.412 17.74,10.86 21.4,14.78 3.92,4.222 7.69,11.39 9.58,18.17 0.69,2.485 1.33,4.583 1.45,4.704 0.1,0.096 0.97,-1.122 1.9,-2.726 2.67,-4.559 5.48,-7.382 8.94,-8.986 3.87,-1.809 8.08,-1.93 10.4,-0.326 2.89,1.99 3.92,2.099 6.48,0.651 l 2.42,-1.363 2.46,1.266 c 3.03,1.568 3.31,3.112 1.2,6.718 -2.05,3.498 -3.88,8.757 -5.12,14.78 -0.9,4.258 -0.89,4.921 0.06,7.249 1.28,3.184 3.3,3.884 6.41,2.207 4.86,-2.605 7.59,-6.996 12.63,-20.23 3.38,-8.95 6.55,-12.19 13.35,-13.71 2.59,-0.579 3.37,-0.494 5.63,0.603 3.57,1.737 4.42,3.317 4.83,9.155 l 0.34,4.994 2.8,-3.86 c 4.47,-6.152 9.38,-8.902 16.03,-8.962 2.96,-0.024 3.79,0.242 5,1.52 1.85,1.966 1.7,3.088 -2.1,17.19 -1.6,5.934 -2.93,11.42 -2.93,12.19 0.04,0.859 0.5,1.644 1.24,2.087 1.03,0.555 2.18,0.121 6.41,-2.316 4.6,-2.666 5.71,-3.04 10.06,-3.365 5.62,-0.398 6.33,-0.784 12.17,-6.513 4.2,-4.101 7.72,-9.529 6.78,-10.47 -0.28,-0.265 -3.15,-0.494 -6.34,-0.482 -4.93,0 -6.45,0.265 -9.8,1.737 -4.52,1.978 -7.04,2.207 -7.62,0.675 -0.6,-1.532 3.33,-4.837 7.82,-6.586 3.3,-1.291 5.32,-1.52 16.5,-1.882 11.72,-0.386 13.06,-0.554 17.09,-2.111 5.5,-2.135 8.86,-2.231 10.23,-0.277 1.27,1.809 1.27,3.944 0,5.211 -1.08,1.061 -1.38,1.146 -8.18,2.171 -5.76,0.856 -11.57,3.775 -16.41,8.238 -3.7,3.426 -6.86,8.479 -6.87,11.01 -0.02,1.978 12.52,5.633 16.18,4.728 2.94,-0.748 5.56,-3.812 5.33,-6.26 -0.18,-1.882 -0.41,-2.087 -2.58,-2.268 -2.91,-0.241 -2.98,-0.784 -0.46,-2.895 5.62,-4.716 12.45,-1.11 9.79,5.187 -1.18,2.835 -5.73,8.455 -8.26,10.2 -2.48,1.725 -8.59,2.859 -12.7,2.376 a 95.595,95.595 0 0 1 -9.52,-2.014 c -6.31,-1.64 -7.98,-1.701 -15.38,-0.567 -1.57,0.241 -3.18,0.121 -4.01,-0.326 -1.21,-0.663 -1.72,-0.446 -4.15,1.785 -4.01,3.703 -9.19,4.849 -13.49,2.979 z m -72.42,-8.009 c 3.73,-1.978 5.92,-4.258 8.01,-8.347 1.99,-3.896 3.75,-9.83 3.75,-12.59 0,-3.208 -4.09,-6.067 -7.52,-5.271 -4.89,1.146 -9.87,7.128 -12.2,14.66 -3.2,10.37 0.36,15.55 7.97,11.56 z m 146.3,6.634 c -2.82,-1.484 -3.5,-2.654 -3.5,-6.224 0,-9.312 4.68,-22.25 10.38,-28.73 4.05,-4.608 12.34,-6.755 15.8,-4.101 2.59,1.978 3.71,2.099 6.3,0.651 l 2.43,-1.363 2.42,1.254 c 1.36,0.7 2.55,1.785 2.69,2.412 0.12,0.628 -0.8,3.172 -2.04,5.657 -3.24,6.465 -5.32,14.76 -4.97,19.78 0.12,1.845 2.42,4.089 4.16,4.089 2.06,0 6.44,-3.329 8.83,-6.743 1.13,-1.568 2.76,-4.704 3.66,-6.936 2.06,-5.187 2.93,-6.127 4.17,-4.463 1.24,1.701 1.16,2.871 -0.63,7.575 a 35.46,35.46 0 0 1 -7.92,12.66 c -3.51,3.763 -6.96,5.488 -11.04,5.5 -2.47,0.012 -3.4,-0.337 -5.27,-1.978 a 16.246,16.246 0 0 1 -3.23,-3.812 c -0.51,-0.989 -1.18,-1.809 -1.45,-1.809 -0.27,0 -1.82,1.242 -3.39,2.774 -4.68,4.463 -12.74,6.224 -17.38,3.787 z m 13.38,-6.634 c 1.4,-0.736 3.36,-2.099 4.35,-3.015 3.82,-3.558 8.68,-16.14 7.47,-19.32 -1.46,-3.836 -6.89,-5.018 -11.13,-2.412 -4.65,2.883 -9.93,13.51 -9.93,20.02 0,5.548 3.87,7.539 9.24,4.716 z m -825.595,6.127 c -1.125,-1.351 -0.472,-2.654 3.266,-6.574 l 2.963,-3.112 -10.47,-9.77 c -5.757,-5.367 -10.89,-9.999 -11.42,-10.29 -1,-0.85 -1.85,-1.861 -2.516,-2.991 a 18.722,18.722 0 0 0 -4.414,-4.427 c -4.62,-3.172 -15.12,-13.81 -14.88,-15.08 0.327,-1.689 3.217,-1.725 6.362,-0.096 a 22.728,22.728 0 0 0 6.047,1.882 c 3.786,0.53 9.797,4.607 11.44,7.744 0.992,1.918 4.922,6.948 9.071,11.59 1.258,1.411 4.717,4.463 7.692,6.755 2.975,2.316 6.192,5.078 7.16,6.152 0.968,1.098 1.971,1.978 2.225,1.978 1.088,-0.037 4.136,-5.331 4.463,-7.756 0.278,-2.099 1.004,-3.257 3.689,-5.826 1.838,-1.773 3.919,-4.39 4.62,-5.814 1.33,-2.654 4.088,-5.199 13.59,-12.54 a 73.207,73.207 0 0 0 9.615,-9.179 c 2.237,-2.702 15.15,-15.9 28.72,-29.35 13.55,-13.44 25.75,-25.91 27.1,-27.72 1.729,-2.28 3.096,-3.401 4.475,-3.715 1.693,-0.362 8.103,-5.717 18.61,-15.52 1.089,-1.025 0.895,-1.339 -4.342,-6.73 a 174.718,174.718 0 0 1 -9.555,-10.8 c -2.225,-2.822 -5.14,-5.886 -6.471,-6.803 -1.33,-0.929 -5.225,-4.68 -8.672,-8.371 -7.438,-7.961 -36.57,-34.76 -40.66,-37.43 a 4.947,4.947 0 0 1 -2.153,-3.438 17.626,17.626 0 0 0 -1.209,-3.908 27.195,27.195 0 0 1 -1.524,-5.102 c -0.653,-3.136 -1.209,-3.98 -5.164,-7.84 -4.33,-4.222 -5.588,-6.381 -4.838,-8.323 0.206,-0.531 1.088,-0.965 1.983,-0.965 1.294,0 6.096,4.463 23.14,21.45 a 3056.18,3056.18 0 0 0 26.99,26.66 c 3.87,3.691 5.684,5.91 6.12,7.502 0.605,2.171 3.386,6.429 4.814,7.394 1.85,1.242 16.62,14.96 22.25,20.65 7.305,7.418 8.43,7.828 12.7,4.62 3.338,-2.533 6.12,-3.389 8.248,-2.593 2.758,1.049 2.165,3.015 -2.237,7.454 l -3.931,3.956 2.975,3.172 c 3.217,3.438 3.544,4.487 1.923,6.103 -1.294,1.291 -3.29,0.965 -7.886,-1.23 l -3.314,-1.604 -3.265,2.171 c -6.458,4.282 -13.59,11.47 -25.2,25.44 a 47.773,47.773 0 0 1 -6.289,6.067 c -5.564,4.282 -12.82,11.46 -14.08,13.92 -1.173,2.268 -3.604,5.114 -14.88,17.44 -11.18,12.23 -26.61,26.86 -30.94,29.36 -3.773,2.171 -5.733,3.956 -5.733,5.247 0,2.05 -4.04,7.092 -10.73,13.35 l -6.773,6.344 1.754,3.172 c 2.177,3.92 2.383,7.599 0.423,7.599 -0.725,0 -2.588,-0.748 -4.16,-1.665 l -2.83,-1.665 -3.64,1.616 c -4.947,2.195 -9.168,2.774 -10.28,1.435 z m 6.168,-46.44 c -3.653,-1.134 -4.62,-2.485 -5.588,-7.876 -0.81,-4.559 -1.33,-5.162 -3.894,-4.656 -0.967,0.193 -3.145,0.012 -4.838,-0.398 -3.749,-0.88 -5.563,-0.314 -9.313,2.895 l -2.624,2.292 -5.721,-0.338 c -10.59,-0.603 -19.86,-4.969 -32.41,-15.32 -4.898,-4.053 -22.83,-21.28 -24.07,-23.13 -1.27,-1.918 -1.451,-4.559 -0.363,-5.645 1.028,-1.037 -24.91,-26.7 -29.7,-29.41 a 28.786,28.786 0 0 1 -4.995,-3.51 l -1.621,-1.616 -2.104,1.544 c -6.712,4.982 -11.44,2.123 -5.261,-3.16 l 2.903,-2.473 -2.298,-3.015 c -2.661,-3.45 -3.604,-6.067 -2.745,-7.599 0.968,-1.725 2.141,-1.254 5.539,2.268 l 3.217,3.329 2.419,-2.256 a 161.063,161.063 0 0 1 6.12,-5.319 c 3.64,-3.028 3.701,-3.136 3.338,-5.681 l -0.387,-2.617 10.82,-11.1 a 1421.206,1421.206 0 0 0 26.03,-27.31 c 2.419,-2.617 5.092,-5.946 5.926,-7.394 0.919,-1.616 4.439,-5.078 9.119,-8.962 4.185,-3.474 8.611,-7.659 9.833,-9.288 3.169,-4.282 5.89,-6.152 9.748,-6.67 1.814,-0.241 4.052,-0.94 4.959,-1.532 2.02,-1.327 3.628,-0.844 4.16,1.266 0.556,2.195 -0.484,4.101 -5.031,9.263 a 110.867,110.867 0 0 1 -13.88,13.62 l -8.103,6.948 c -1.524,1.291 -5.08,5.38 -7.934,9.07 -7.789,10.1 -15.54,18.27 -20.28,21.4 -4.136,2.738 -24.7,22.43 -28.05,26.9 l -1.669,2.207 4.257,3.655 a 724.687,724.687 0 0 1 10.74,9.517 c 3.568,3.22 10.01,9.01 14.32,12.85 18.34,16.36 28.19,26.31 32.61,32.93 1.197,1.797 3.35,4.403 4.765,5.79 2.104,2.038 2.588,2.943 2.588,4.861 0,2.654 0.508,4.366 1.294,4.366 0.871,0 7.644,-10.75 10.2,-16.19 2.733,-5.814 4.306,-11.01 6.313,-20.95 2.697,-13.3 3.991,-18.43 5.261,-20.92 1.209,-2.412 1.222,-2.955 0.484,-12.36 -0.834,-10.77 -0.399,-38.79 0.726,-45.45 0.363,-2.268 1.403,-5.018 2.54,-6.803 4.366,-6.827 15.82,-15.05 22.83,-16.37 5.563,-1.049 11.71,-0.808 13.36,0.531 1.33,1.074 1.427,1.628 1.33,7.454 a 97.471,97.471 0 0 1 -0.448,8.877 c -0.459,3.136 0.69,15.9 2.02,22.69 1.838,9.239 5.152,17.84 12.63,32.74 10.66,21.26 13.07,27.6 16.58,43.34 1.294,5.874 2.225,11.76 2.225,14.21 0,4.33 -0.157,4.644 -4.076,7.792 -0.604,0.507 -1.016,1.809 -1.016,3.317 0,5.066 -1.476,6.429 -10.59,9.854 a 42.421,42.421 0 0 0 -7.535,3.812 c -5.709,3.932 -17.97,5.778 -24.66,3.727 z m 176.7,-4.825 a 30.286,30.286 0 0 1 -5.818,-4.704 17.833,17.833 0 0 1 -5.467,-13.32 c 0.06,-7.116 4.886,-21.59 7.68,-23.07 0.931,-0.507 2.165,-0.519 4.245,-0.06 2.092,0.47 4.427,0.446 8.14,-0.097 4.656,-0.675 5.467,-0.627 7.595,0.374 1.959,0.929 2.54,1.665 3.241,4.053 0.726,2.461 1.173,2.991 2.891,3.438 2.77,0.724 3.265,2.364 3.253,10.83 -0.02,10.69 -1.693,15.58 -6.966,20.34 -3.024,2.714 -5.926,3.594 -11.8,3.57 -3.266,-0.012 -5.14,-0.398 -6.979,-1.363 z m 513.997,-25.27 c -4.11,-1.858 -5.51,-5.343 -5.6,-13.94 -0.03,-3.655 -0.32,-6.706 -0.64,-6.803 -0.31,-0.097 -3.03,1.894 -6.06,4.403 -11.27,9.408 -19.33,12.44 -25.1,9.481 -4.59,-2.34 -6.64,-5.573 -6.64,-10.47 v -2.654 l -2.9,3.305 c -6.34,7.237 -21.82,12.23 -37.87,12.23 -8.22,0 -14.02,-1.266 -20.34,-4.463 -5.6,-2.822 -6.34,-5.018 -3.17,-9.384 4,-5.512 6.41,-5.621 7.74,-0.338 1.31,5.162 6.59,7.358 17.72,7.382 12.65,0.024 23.78,-2.943 25.11,-6.73 0.97,-2.726 -1.86,-5.042 -12.37,-10.13 -10.53,-5.09 -20.27,-11.51 -22.21,-14.66 a 10.097,10.097 0 0 1 -1.33,-4.704 c 0,-2.352 0.33,-2.895 3.65,-5.826 5.57,-4.921 12.22,-7.925 23.38,-10.51 6.95,-1.616 11.03,-2.207 14.96,-2.207 6.52,0 8.52,0.808 8.79,3.558 0.36,3.703 -5.05,6.61 -10.52,5.669 -7.02,-1.206 -11.67,-1.134 -17.38,0.278 -8.34,2.051 -10.87,4.053 -9.91,7.876 0.67,2.69 3.64,4.728 15.86,10.86 17.73,8.865 20.13,10.72 20.2,15.64 0.03,1.93 0.18,1.761 1.47,-1.749 2.45,-6.574 10.49,-20.85 13.87,-24.64 6.46,-7.225 18.01,-13.79 25.06,-14.23 3.22,-0.217 4.6,0.06 7.97,1.532 a 18.531,18.531 0 0 0 8.59,1.809 c 5.19,0.036 6.94,0.965 6.34,3.341 -0.36,1.447 -1.27,3.558 -5.86,13.51 -2.31,5.042 -5.92,16.66 -7.23,23.36 -0.97,4.921 -0.46,10.61 1.09,12.34 4.35,4.801 23.55,-7.599 27.64,-17.85 0.79,-1.954 3.93,-8.624 6.99,-14.81 3.05,-6.188 6.48,-14.05 7.62,-17.47 2.4,-7.225 4.33,-9.493 9.48,-11.15 4.19,-1.351 5.71,-1.363 7.59,-0.036 2.29,1.592 1.5,4.776 -3.04,12.28 -2.14,3.534 -3.88,6.634 -3.88,6.899 0,0.241 -1.33,2.593 -2.93,5.199 -1.6,2.605 -4.82,8.721 -7.13,13.61 -4.9,10.34 -5.8,14.99 -3.39,17.41 1.81,1.797 3.47,1.689 8.19,-0.543 2.79,-1.315 5.8,-3.631 10.07,-7.756 3.36,-3.245 6.99,-6.176 8.08,-6.537 1.76,-0.579 2.22,-1.315 4.25,-6.682 2.87,-7.563 6.07,-12.25 12.84,-18.78 9.12,-8.805 15.5,-11.63 26.33,-11.68 5.7,-0.024 9.9,4.39 10.86,11.46 0.56,4.017 -0.94,5.717 -5.33,6.152 -3.97,0.362 -4.78,-0.181 -6.13,-4.113 -1.49,-4.39 -2.56,-5.259 -6.35,-5.247 -3.51,0 -7.37,1.484 -10.82,4.113 -3.07,2.34 -8.28,10.11 -10.68,15.97 -4.79,11.6 -1.13,21.83 8.83,24.73 8.92,2.581 18.92,-2.195 25.31,-12.12 3.38,-5.259 5.54,-6.574 7.17,-4.378 1.33,1.785 0.53,4.427 -2.54,8.443 -5.6,7.334 -11.41,11.78 -18.75,14.41 -4.39,1.568 -15.26,1.592 -19.8,0 -4.86,-1.677 -10.49,-7.141 -12.51,-12.13 -0.85,-2.099 -1.8,-3.812 -2.13,-3.812 -0.33,0 -3.87,3.003 -7.87,6.67 -8.59,7.864 -13.63,10.8 -18.58,10.78 -4.24,0 -9.08,-2.256 -11.41,-5.283 -0.97,-1.291 -2.17,-2.328 -2.67,-2.328 -0.48,0 -2.63,1.496 -4.77,3.329 -6.4,5.476 -8.38,6.755 -12.63,8.081 -5.2,1.652 -10.98,1.665 -14.6,0.012 z m -22.69,-16.83 c 11.68,-5.85 25.11,-21.93 25.11,-30.03 0,-4.656 -1.74,-6.357 -7.92,-7.744 -5.67,-1.266 -10.06,1.279 -16.79,9.698 -3.28,4.125 -8.46,15.15 -9.7,20.66 -0.69,3.076 -0.31,6.827 0.82,8.202 1.07,1.291 5.11,0.917 8.49,-0.784 z m -112,11.3 c -7.33,-1.64 -12.38,-6.622 -14.68,-14.51 -0.93,-3.196 -0.98,-4.463 -0.4,-8.274 1.97,-12.56 12.57,-30.72 20.72,-35.49 3.15,-1.845 9.72,-3.486 13.96,-3.498 8.51,-0.024 14.49,8.202 13.59,18.64 a 54.076,54.076 0 0 1 -5.84,19.62 c -7.07,13.93 -13.64,20.9 -21.7,22.99 -1.32,0.381 -2.67,0.679 -4.04,0.893 z m 9,-9.77 c 7.02,-3.377 14.44,-18.3 14.51,-29.15 0.03,-3.872 -0.28,-5.428 -1.66,-8.359 -0.93,-1.978 -2.44,-4.089 -3.35,-4.68 -3.88,-2.533 -11.72,0.7 -15.3,6.32 -6.19,9.71 -9.09,25.69 -5.81,31.96 2.57,4.945 6.63,6.32 11.62,3.908 z m 269.8,8.528 c -4.04,-1.242 -10.11,-7.104 -11.13,-10.73 -2.1,-7.575 1.21,-17.85 9.64,-29.85 4.97,-7.068 9,-10.61 15.6,-13.79 5.13,-2.461 5.96,-2.654 10.76,-2.654 4.72,0 5.43,0.145 7.95,1.894 3.5,2.412 6.25,7.575 6.25,11.7 -0.02,10.25 -8.03,26.57 -17.68,36.06 -4.72,4.62 -8.49,6.755 -13.8,7.72 -4.39,0.82 -3.68,0.844 -7.6,-0.338 z m 11.56,-7.551 c 1.29,-0.543 3.05,-1.616 3.87,-2.388 4.91,-4.535 11.48,-15.68 12.84,-21.83 0.85,-3.691 -0.21,-10.98 -1.97,-13.9 -2.06,-3.377 -5.65,-4.27 -9.93,-2.485 -3.31,1.375 -11.25,9.686 -13.45,14.08 -2.99,5.946 -3.54,8.323 -3.39,14.4 0.15,6.537 1.49,9.891 4.72,11.86 2.47,1.496 4.2,1.568 7.32,0.241 z M 315.601,317.88 c -9.482,-1.194 -19.94,-4.632 -25.37,-8.359 -5.164,-3.546 -15.11,-12.99 -17.57,-16.71 -5.007,-7.514 -7.619,-22.53 -3.761,-21.75 0.556,0.121 1.754,2.147 2.782,4.776 0.968,2.509 2.552,5.898 3.507,7.527 2.165,3.667 9.881,11.86 12.98,13.75 a 76.107,76.107 0 0 1 5.176,3.582 c 1.572,1.206 4.584,2.991 6.676,3.956 4.753,2.219 20.42,6.296 24.19,6.296 1.536,0 4.306,0.326 6.144,0.712 4.136,0.88 14.67,-0.543 24.43,-3.317 9.204,-2.605 10.73,-3.341 17.4,-8.407 7.378,-5.609 14.77,-14.64 19.34,-23.64 2.407,-4.764 9.724,-24.12 11.3,-29.88 a 284.993,284.993 0 0 1 3.193,-10.71 c 3.108,-9.637 7.378,-25.04 8.901,-32.06 0.786,-3.667 2.661,-11.37 4.148,-17.14 1.5,-5.766 3.205,-12.76 3.786,-15.56 0.593,-2.798 2.008,-8.202 3.145,-12.06 3.907,-13.21 6.265,-23.56 5.781,-25.47 -0.448,-1.809 -1.234,-2.05 -8.478,-2.533 -6.918,-0.459 -8.418,-0.965 -8.418,-2.835 0,-2.05 2.721,-4.017 8.248,-5.922 4.161,-1.447 5.83,-1.725 8.793,-1.447 16.44,1.556 19.31,2.195 19.75,4.463 0.242,1.242 -2.322,10.84 -4.693,17.56 a 224.128,224.128 0 0 0 -3.471,11.43 c -5.576,20.11 -9.796,34.5 -11.51,39.36 -1.983,5.548 -2.757,8.178 -6.277,21.26 a 263.335,263.335 0 0 1 -3.217,11.11 c -0.641,1.93 -2.31,8.081 -3.725,13.65 -3.568,14.17 -5.793,20.63 -9.966,28.97 -7.922,15.81 -18.32,28.76 -28.3,35.17 -8.696,5.597 -24.67,11.7 -36.4,13.93 -5.515,1.049 -21.2,1.206 -28.49,0.277 z m -125.1,-22.92 c -7.595,-7.442 -9.833,-10.75 -12.58,-18.61 -6.096,-17.49 -8.442,-23.71 -9.627,-25.56 -2.624,-4.113 -16.04,-12.73 -18.41,-11.82 -0.448,0.157 -0.968,1.447 -1.161,2.871 -0.181,1.399 -0.532,2.726 -0.738,2.943 -0.218,0.217 -2.866,0.446 -5.842,0.507 -5.225,0.096 -5.588,0 -8.684,-2.075 -4.608,-3.1 -11.89,-6.332 -19.01,-8.443 -3.386,-1.001 -6.676,-2.171 -7.317,-2.569 -1.863,-1.182 -9.603,-13.28 -11.8,-18.45 -5.08,-11.97 -8.853,-23.92 -10.41,-33.11 -1.137,-6.646 -1.137,-6.791 0.097,-8.154 1.705,-1.93 15.52,-13.38 18.96,-15.75 2.588,-1.785 5.503,-6.115 5.503,-8.214 0,-1.351 3.943,-11.16 4.959,-12.32 1.209,-1.399 4.16,-1.447 5.297,-0.061 0.581,0.688 0.871,2.69 0.859,5.874 -0.036,8.612 -4.064,16.11 -14.44,26.86 -6.217,6.453 -6.858,7.334 -6.858,9.481 0,3.305 2.588,10.13 7.765,20.5 5.309,10.61 7.378,13.42 10.57,14.28 7.982,2.171 11.66,2.822 20.48,3.631 5.43,0.483 12.15,1.134 14.96,1.387 6.108,0.603 8.055,1.532 11.79,5.681 5.479,6.103 7.535,8.841 11.3,15.09 3.786,6.296 6.253,12.95 14.42,38.86 1.609,5.09 2.987,8.166 4.802,10.61 2.02,2.726 5.092,8.829 5.092,10.13 0,0.664 -2.117,2.243 -2.987,2.243 -0.557,0 -3.677,-2.629 -6.966,-5.838 z m 702.299,1.206 c -4.47,-2.268 -0.16,-10.2 6.51,-11.98 6.82,-1.809 8.9,1.833 4.34,7.599 -3.83,4.837 -7.21,6.2 -10.84,4.378 z m -612.399,-18.94 a 22.806,22.806 0 0 1 -4.402,-3.775 c -2.866,-3.631 -27.08,-27.9 -27.85,-27.9 -0.435,0 -3.266,-2.497 -6.277,-5.573 -7.934,-8.081 -23.58,-22.65 -26.81,-24.98 -1.524,-1.098 -6.047,-5.319 -10.04,-9.384 -3.991,-4.041 -8.708,-8.226 -10.46,-9.276 -2.564,-1.52 -3.665,-2.738 -5.406,-6.031 -1.73,-3.257 -2.044,-4.342 -1.5,-5.211 1.113,-1.773 0.81,-2.822 -1.137,-4.077 -1.016,-0.651 -4.306,-3.896 -7.329,-7.201 -7.099,-7.816 -17.1,-16.85 -20.74,-18.74 a 24.761,24.761 0 0 1 -4.644,-3.172 l -1.766,-1.677 -2.999,1.99 c -2.201,1.447 -3.58,1.93 -5.225,1.785 -3.169,-0.265 -3.084,-1.604 0.351,-5.79 l 2.963,-3.57 -2.637,-2.979 c -3.846,-4.378 -4.402,-7.985 -1.258,-8.347 1.306,-0.157 2.225,0.494 4.596,3.257 l 2.963,3.462 5.733,-5.488 c 5.6,-5.355 5.721,-5.548 5.334,-7.84 -0.399,-2.34 -0.351,-2.4 9.724,-12.38 5.563,-5.524 11.54,-11.87 13.28,-14.12 1.742,-2.256 6.991,-8.106 11.67,-13.01 4.668,-4.909 9.494,-10.43 10.73,-12.27 2.878,-4.33 5.987,-6.851 10.44,-8.479 3.145,-1.146 4.765,-2.497 12.74,-10.61 24.07,-24.51 36.19,-37.81 36.19,-39.73 0,-0.362 -1.439,-2.002 -3.193,-3.619 l -3.205,-2.919 0.423,-3.739 c 0.242,-2.05 0.677,-4.234 0.992,-4.837 0.967,-1.858 3.229,-1.242 6.507,1.797 5.721,5.307 6.567,5.488 13.79,2.955 5.563,-1.93 6.616,0.434 2.516,5.621 -1.403,1.785 -2.552,3.727 -2.552,4.354 0,0.603 1.004,1.809 2.237,2.642 1.234,0.832 3.991,4.029 6.168,7.104 4.608,6.586 6.688,8.479 9.917,9.058 1.282,0.241 3.072,0.796 3.955,1.242 0.87,0.446 8.176,7.358 16.23,15.32 8.055,7.961 17.44,17.04 20.85,20.17 3.411,3.112 7.22,7.177 8.442,9.022 1.234,1.858 3.761,4.596 5.624,6.115 9.47,7.695 12.63,10.94 14.39,14.74 2.141,4.644 5.442,8.504 13.3,15.56 7.704,6.948 14.88,14.06 18.55,18.41 l 2.915,3.45 3.265,-2.099 c 3.665,-2.34 5.564,-2.256 6.519,0.277 0.641,1.677 -0.096,4.306 -1.693,6.055 -0.835,0.929 -0.762,1.303 0.689,3.426 1.814,2.678 1.887,3.052 0.968,4.789 -0.871,1.616 -4.838,1.628 -6.93,0.024 -1.536,-1.17 -1.548,-1.17 -5.092,1.399 -1.959,1.411 -5.563,4.825 -8.007,7.599 -2.443,2.774 -11.61,12.28 -20.36,21.13 -8.756,8.841 -18.63,19.44 -21.96,23.52 -9.313,11.43 -13.45,16.22 -16.19,18.66 -1.379,1.219 -6.821,6.405 -12.09,11.51 -5.261,5.102 -11.22,10.32 -13.24,11.58 -2.54,1.592 -3.991,3.04 -4.753,4.68 -1.21,2.654 -3.991,5.91 -12.43,14.59 -5.237,5.367 -5.612,5.91 -4.668,6.863 1.814,1.821 1.137,4.33 -1.572,5.717 -2.504,1.292 -3.145,1.207 -6.531,-1.037 z m 6.096,-17.07 c 0.266,0 0.484,-1.086 0.484,-2.424 0,-2.099 0.459,-2.859 3.507,-5.79 2.056,-1.978 4.088,-4.68 4.862,-6.501 1.089,-2.509 2.455,-3.98 7.136,-7.659 5.66,-4.415 9.966,-8.564 20.44,-19.56 4.112,-4.33 5.733,-5.585 8.393,-6.489 3.35,-1.134 6.664,-4.342 10.45,-10.06 4.874,-7.37 7.825,-10.88 16.61,-19.71 5.358,-5.38 11.14,-11.54 12.87,-13.7 2.056,-2.617 4.088,-4.378 6.035,-5.295 1.609,-0.748 4.209,-2.509 5.793,-3.908 3.677,-3.281 13.99,-13.29 13.99,-13.58 a 6.245,6.245 0 0 0 -1.113,-1.399 l -10.33,-11.16 c -5.08,-5.488 -10.14,-10.54 -11.26,-11.24 a 12.336,12.336 0 0 1 -3.362,-3.377 22.953,22.953 0 0 0 -4.16,-4.439 51.034,51.034 0 0 1 -6.325,-6.899 c -3.665,-4.825 -11.37,-12.42 -21.6,-21.37 -4.741,-4.137 -6.289,-5.886 -6.773,-7.683 -0.46,-1.749 -2.153,-3.739 -6.821,-8.009 a 110.47,110.47 0 0 0 -9.567,-7.949 c -1.862,-1.242 -8.285,-6.923 -14.27,-12.64 a 429.761,429.761 0 0 0 -13.1,-12.15 27.576,27.576 0 0 1 -4.209,-4.463 c -3.35,-4.583 -8.914,-8.479 -11.13,-7.792 -1.596,0.507 -14.19,13.03 -16.57,16.45 -0.992,1.447 -3.761,4.535 -6.168,6.863 a 266.092,266.092 0 0 0 -18.83,19.9 c -6.579,7.864 -9.276,10.18 -12.43,10.67 a 5.934,5.934 0 0 0 -3.931,2.099 c -0.726,0.929 -1.258,1.773 -1.137,1.882 0.096,0.096 1.33,-0.217 2.709,-0.7 1.379,-0.482 3.749,-0.916 5.249,-0.928 1.5,-0.012 3.931,-0.64 5.394,-1.375 2.358,-1.206 3.386,-1.327 9.047,-1.025 7.487,0.41 16.55,1.954 23.23,3.98 2.624,0.796 6.168,1.773 7.861,2.171 1.705,0.41 4.838,1.592 6.954,2.666 2.104,1.061 5.902,2.593 8.43,3.426 6.966,2.268 15.21,6.393 18.54,9.276 l 2.999,2.581 4.814,-0.386 c 12.61,-1.025 28.03,-1.677 30.9,-1.303 1.754,0.217 4.088,0.965 5.201,1.64 1.113,0.675 3.834,1.532 6.047,1.93 8.031,1.375 11.67,4.74 7.861,7.237 -1.258,0.82 -3.253,1.001 -10.29,0.941 l -8.744,-0.097 -1.391,1.749 c -1.221,1.544 -1.971,1.797 -6.398,2.195 -2.745,0.241 -8.442,0.483 -12.65,0.507 -14.69,0.096 -30.83,2.171 -33.73,4.354 l -1.403,1.061 2.141,2.798 c 2.056,2.702 2.624,5.066 1.742,7.358 -0.617,1.604 -3.713,2.883 -7.039,2.883 -5.056,0 -10.49,1.122 -14.36,2.943 -2.02,0.952 -3.653,1.966 -3.653,2.243 0,0.277 4.789,0.53 10.64,0.542 13.92,0 21.55,1.086 30.57,4.282 8.853,3.148 9.651,3.667 12.82,8.323 5.709,8.395 10.58,22.41 12.16,34.98 0.943,7.563 1.306,8.262 4.33,8.262 2.842,0 6.471,1.122 6.471,2.002 0,3.293 -5.201,6.779 -12.58,8.407 a 96.65,96.65 0 0 0 -9.821,2.931 c -8.636,3.148 -8.66,3.136 -12.52,-8.335 a 105.772,105.772 0 0 0 -3.52,-9.336 c -0.605,-1.146 -2.358,-6.562 -3.919,-12.01 -1.572,-5.476 -3.096,-10.22 -3.423,-10.53 -1.838,-1.833 -13.84,-0.808 -14.5,1.242 -0.122,0.41 2.008,1.93 4.717,3.426 7.716,4.197 11.88,7.707 12.7,10.71 0.641,2.364 -0.81,5.5 -5.926,12.88 -7.039,10.17 -10.36,13.56 -14.5,14.76 -3.665,1.061 -7.354,4.439 -7.354,6.73 0,0.76 1.367,2.292 3.507,3.944 4.233,3.257 6.338,7.442 4.596,9.167 -0.919,0.917 -1.536,0.905 -6.93,-0.06 a 107.794,107.794 0 0 1 -10.9,-2.629 c -2.733,-0.844 -6.229,-1.556 -7.777,-1.556 -5.092,0 -9.071,-1.206 -10.49,-3.16 -1.802,-2.533 -1.596,-4.077 0.786,-6.055 8.43,-6.936 22.75,-23.16 22.75,-25.74 0,-1.532 -0.363,-1.713 -7.003,-3.498 a 87.958,87.958 0 0 1 -12.38,-4.704 c -7.886,-3.763 -9.385,-5.452 -13.98,-15.66 -3.592,-7.985 -3.81,-10.93 -1.004,-13.56 l 1.899,-1.749 -1.996,-0.41 c -3.29,-0.639 -16.69,-13.87 -17.79,-17.55 -0.81,-2.714 0.605,-11.16 2.612,-15.52 1.693,-3.691 5.346,-7.141 8.466,-8.021 1.476,-0.422 2.939,-0.989 3.266,-1.266 1.04,-0.905 -0.992,-2.461 -3.205,-2.461 -2.262,0 -4.693,-1.809 -4.693,-3.486 0,-0.507 -0.931,-1.327 -2.056,-1.809 a 57.426,57.426 0 0 1 -6.809,-4.137 c -2.588,-1.797 -5.225,-3.257 -5.842,-3.257 -0.605,0 -1.778,0.917 -2.588,2.05 -2.298,3.22 -10.76,11.63 -13.57,13.49 -2.298,1.52 -22.45,20.92 -28.51,27.45 l -2.479,2.678 2.056,1.773 c 1.137,0.965 2.576,2.051 3.205,2.388 1.875,1.049 14.51,12.34 20.44,18.24 3.06,3.064 7.003,6.441 8.768,7.527 1.766,1.086 3.205,2.231 3.205,2.557 0,0.338 4.221,4.813 9.385,9.951 6.253,6.224 10.84,11.46 13.75,15.69 2.419,3.498 7.136,9.239 10.51,12.79 a 925.757,925.757 0 0 1 9.53,10.17 c 1.863,2.05 4.596,4.571 6.047,5.597 5.297,3.739 8.744,6.972 10.52,9.854 1.911,3.112 13.87,15.38 21.41,21.98 l 4.426,3.896 2.54,-2.461 c 1.403,-1.351 2.757,-2.449 3.024,-2.449 z m -13.84,-176.5 c -5.031,-1.206 -9.095,-5.488 -11.13,-11.71 -1.415,-4.33 -0.544,-13.75 1.838,-19.85 1.1,-2.847 2.455,-5.536 2.987,-5.971 0.52,-0.446 3.024,-1.001 5.539,-1.242 2.516,-0.241 6.156,-0.832 8.091,-1.266 6.845,-1.592 10.63,0.422 14.13,7.502 1.875,3.812 2.08,4.789 2.056,9.649 -0.036,5.814 -1.149,10.13 -3.991,15.46 -3.374,6.272 -11.51,9.384 -19.52,7.442 z m 13.63,22.36 c 0.726,-0.507 -2.709,-2.135 -7.595,-3.619 -12.17,-3.691 -30.44,-6.513 -31.46,-4.873 -0.568,0.929 0.907,3.233 4.596,7.165 l 2.83,3.015 2.625,-1.327 c 1.451,-0.724 3.507,-1.942 4.548,-2.726 1.052,-0.772 2.443,-1.592 3.096,-1.833 2.225,-0.82 6.241,0.844 9.518,3.98 l 3.193,3.028 4.185,-1.315 c 2.298,-0.724 4.318,-1.399 4.475,-1.496 z m 149.2,160.4 c -4.886,-1.52 -7.535,-6.634 -7.499,-14.59 0,-5.476 0.122,-5.971 7.813,-31.75 0.363,-1.218 2.104,-7.502 3.87,-13.97 1.79,-6.453 4.233,-14.46 5.443,-17.78 2.878,-7.961 4.717,-15.38 4.717,-19.03 0,-2.038 0.363,-3.317 1.113,-3.98 1.621,-1.472 9.155,-4.921 10.74,-4.921 1.959,0 2.975,1.568 2.588,3.956 -0.314,1.966 -6.495,20.09 -13.81,40.49 a 310.588,310.588 0 0 0 -4.838,14.59 712.22,712.22 0 0 1 -2.794,9.529 c -2.322,7.744 -4.124,17.45 -4.124,22.12 0.024,4.185 0.182,4.801 1.572,5.934 1.209,0.989 2.117,1.182 4.027,0.868 4.91,-0.784 12.66,-5.657 16.58,-10.41 l 5.382,-6.574 c 7.801,-9.565 13.84,-14.27 25.06,-19.5 9.591,-4.487 13.42,-5.609 22.77,-6.706 15.84,-1.833 25.023,-1.291 41.483,2.449 2.2,0.507 5.59,1.242 7.51,1.616 1.93,0.386 6.65,1.544 10.51,2.581 3.84,1.037 11.57,2.895 17.17,4.161 5.6,1.266 12.9,3.088 16.23,4.065 3.31,0.977 7.62,1.99 9.54,2.268 2.9,0.484 5.77,1.149 8.59,1.99 16.13,4.825 49.13,7.84 72.23,6.61 13.13,-0.699 14.36,-0.856 21.32,-2.895 7.77,-2.28 17.2,-7.961 19.27,-11.65 1.63,-2.895 1.75,-4.571 0.51,-6.948 -2.35,-4.463 -7.91,-7.346 -19.47,-10.07 -6.02,-1.411 -8.95,-1.737 -16.53,-1.809 -11.32,-0.12 -10.82,-0.036 -10.82,-1.568 0,-1.496 2.17,-2.69 7.01,-3.86 4.96,-1.218 24.46,-1.001 30.22,0.326 4.87,1.134 12.69,5.162 16.3,8.443 4.72,4.234 6.27,10.48 3.79,15.26 -2.76,5.295 -13.01,12.65 -21.35,15.31 -17.88,5.693 -23.73,6.513 -45.96,6.489 -8.81,-0.012 -17.83,-0.326 -20.04,-0.7 a 29.6,29.6 0 0 0 -5.62,-0.494 c -2.41,0.241 -11.89,-0.748 -16.86,-1.785 -4.05,-0.844 -16.4,-2.714 -27.04,-4.101 a 98.824,98.824 0 0 1 -10.18,-2.171 617.29,617.29 0 0 0 -33.42,-7.659 c -2.79,-0.483 -9.09,-1.64 -13.99,-2.545 -15.9,-2.943 -21.436,-3.57 -31.486,-3.57 -15.24,-0.024 -27.85,3.064 -40.02,9.77 -6.132,3.389 -9.458,6.308 -14.27,12.51 -3.749,4.837 -16.88,16.71 -20.32,18.37 -3.241,1.568 -9.966,2.256 -12.92,1.339 z m -312.6,-55.16 c -3.157,-2.304 -4.136,-4.029 -5.89,-10.3 -1.899,-6.851 -1.778,-15.95 0.314,-21.83 2.237,-6.32 3.193,-7.346 8.853,-9.42 5.588,-2.05 7.232,-1.906 8.744,0.796 a 4.38,4.38 0 0 0 3.362,2.304 c 2.661,0.507 3.532,1.773 3.532,5.187 0,1.508 0.557,3.257 1.512,4.644 0.883,1.315 1.959,4.475 2.6,7.707 0.92,4.644 0.968,6.067 0.327,9.203 -1.899,9.191 -5.926,12.59 -15.77,13.33 -4.717,0.338 -4.995,0.302 -7.571,-1.604 z"
         id="path1" /></g></g></svg>
