<svg width="562.1" height="95.04" version="1.1" viewBox="0 0 562.1 95.04" xml:space="preserve" xmlns="http://www.w3.org/2000/svg"><g transform="translate(-913.6 -463.8)"><path d="m1278 557.4c-3.399-1.849-5.292-6.005-3.911-8.586 1.548-2.892 4.272-2.315 5.969 1.263 3.235 6.822 7.793 5.646 9.855-2.543 1.285-5.104 3.637-27.51 2.958-28.18-0.266-0.266-2.371 1.312-4.678 3.507-2.307 2.195-5.388 4.29-6.845 4.656-5.739 1.44-11.28-5.151-11.29-13.42 0-8.069 6.087-20.8 11.9-24.87 1.751-1.226 2.501-1.218 5.562 0.0611 1.946 0.8132 3.539 1.682 3.539 1.931s-1.472 1.321-3.271 2.382c-5.142 3.034-9.947 12.97-10.51 21.74-0.5654 8.81 0.6834 10.48 5.604 7.486 5.896-3.586 11.16-14.02 11.17-22.15 0-2.03 0.4373-3.958 0.9649-4.284 1.081-0.668 4.789 1.377 5.404 2.981 0.8642 2.252-1.419 35.85-2.935 43.19-2.637 12.77-5.341 16.33-12.35 16.27-2.517-0.022-5.727-0.6662-7.134-1.431zm175.9-7.27c-1.388-0.3104-1.783-2.334-2.367-12.13-0.638-10.69-0.895-11.84-2.834-12.69-2.831-1.243-2.722-3.853 0.1785-4.264 1.271-0.1802 2.473-0.8552 2.67-1.5 0.1973-0.6448 0.6418-6.915 0.9878-13.93l0.6292-12.76-3.19 0.2604c-1.875 0.1531-3.374-0.2608-3.637-1.004-0.6935-1.962 5.997-4.236 12.46-4.236 10.89 0 16.81 5.683 16.66 16-0.1217 8.594-5.587 16.98-13.35 20.48l-4.049 1.826v11.74c0 12.08-0.3377 13.07-4.166 12.21zm8.625-33.8c6.07-4.63 9.412-16.35 6.038-21.16-1.693-2.417-7.798-4.781-10.08-3.905-1.224 0.4695-1.283 0.9845-0.3232 2.779 0.8285 1.548 0.9777 5.563 0.5023 13.51-0.3719 6.222-0.4029 11.31-0.069 11.31 0.3341 0 2.104-1.142 3.934-2.537zm-203 12.1c-1.902-1.902-2.509-3.315-2.092-4.873 1.23-4.598 1.956-32.69 0.8446-32.69-1.268 0-5.732 11.29-10.13 25.63-1.71 5.573-3.752 10.67-4.538 11.32-1.932 1.603-5.336-0.2418-6.605-3.579-1.888-4.967-0.5162-33.37 1.646-34.08 0.6042-0.1989 2.147 0.4875 3.429 1.525 2.329 1.886 2.33 1.891 1.118 13.06-1.724 15.9-0.3823 16.82 4.201 2.886 2.047-6.222 5.065-13.67 6.707-16.54 2.494-4.366 3.452-5.229 5.811-5.229 4.485 0 6.135 2.709 6.136 10.08 0 9.219-2.15 33.26-3.069 34.29-0.4279 0.48-1.984-0.3329-3.457-1.806zm-180.8-0.6067c-7.516-5.912-8.517-19.74-2.313-31.96 3.134-6.174 7.925-9.331 13.13-8.649 7.177 0.9409 9.4 6.914 5.639 15.15-1.746 3.821-7.325 9.642-13.51 14.09-2.744 1.975-2.825 2.248-1.688 5.693 1.527 4.627 4.165 5.494 8.129 2.672 3.686-2.625 4.935-1.824 2.883 1.848-2.049 3.667-8.32 4.256-12.27 1.153zm7.705-22.96c7.65-8.468 7.628-18.39-0.028-12.23-2.84 2.286-6.137 9.023-6.973 14.25-0.6346 3.969-0.561 4.145 1.31 3.144 1.09-0.5834 3.651-2.908 5.691-5.166zm301.9 23.89c-2.455-0.9082-3.109-2.954-3.483-10.89l-0.2592-5.5-3.159 6.667c-3.844 8.113-6.653 10.32-11.15 8.75-10.47-3.648-9.414-23.16 1.793-33.29 3.769-3.405 10.41-6.121 12.23-4.999 0.4957 0.3064-1.262 2.652-3.906 5.212-6.699 6.487-9.808 13.06-9.808 20.75 0 6.99 1.732 10.28 4.301 8.166 2.441-2.006 7.066-13.08 9.204-22.04 1.876-7.859 3.663-10.73 6.686-10.73 1.595 0 1.505-0.9956 1.672 18.5 0.075 8.8 0.5 16.73 0.9436 17.62 0.9907 1.988-1.823 2.975-5.064 1.775zm-468.9-1.831c-4.545-2.063-7.201-5.592-5.495-7.299 0.6951-0.6951 1.886-0.3414 3.728 1.107 3.017 2.373 6.468 2.715 9.752 0.9653 3.446-1.835 4.618-4.009 4.652-8.626 0.0428-5.768-2.779-10.93-9.932-18.17-8.374-8.479-9.761-14.49-5.439-23.6 3.711-7.82 15.14-9.939 21.37-3.963 1.583 1.516 2.639 3.38 2.346 4.142-0.729 1.9-2.053 1.739-5.045-0.6148-5.936-4.669-13.27-0.6719-13.27 7.232 0 4.905 1.363 7.218 7.69 13.05 7.1 6.545 9.8 11.99 9.806 19.79 4e-3 5.699-0.3772 7.075-2.861 10.34-3.239 4.25-8.157 7.592-11.13 7.565-1.1-0.01-3.876-0.8701-6.169-1.911zm58.95 0.7352c-1.155-1.437 0.7312-36.39 2.082-38.58 0.4151-0.6717 1.892-1.221 3.281-1.221h2.526l-0.6081 7.75c-0.6744 8.595-1.052 8.72 5.666-1.872 2.772-4.371 4.311-5.874 6-5.863 4.148 0.028 5.396 1.656 5.735 7.485 0.096 1.643 0.3992 1.464 1.698-1 3.796-7.2 9.173-9.549 13.9-6.071 1.778 1.309 1.905 2.424 1.507 13.25-0.2388 6.501-0.4638 15.08-0.5 19.07-0.062 6.762-0.2127 7.251-2.244 7.25-3.114-1e-3 -5.324-2.635-5.304-6.322 0.01-1.748 0.6829-7.229 1.496-12.18 1.847-11.24 1.87-15.59 0.095-18.02-1.212-1.658-1.609-1.723-3.082-0.501-0.9294 0.7713-3.084 4.129-4.788 7.462-2.874 5.621-3.121 6.928-3.412 18.06-0.2868 10.98-0.4785 12.03-2.257 12.31-1.173 0.1879-2.528-0.6048-3.418-2-1.239-1.941-1.327-4.526-0.549-16.12 1.053-15.71 0.4234-18.64-2.977-13.86-4.952 6.955-8.54 16.5-9.089 24.18-0.4743 6.637-0.7761 7.534-2.623 7.798-1.148 0.164-2.557-0.286-3.131-1zm47.88 0.3436c-1.106-0.7184-1.143-4.055-0.2123-19.2 0.639-10.4 1.613-18.92 2.251-19.68 0.6185-0.7454 2.064-1.221 3.212-1.057 1.873 0.2676 2.055 0.8637 1.774 5.798-0.1724 3.025-0.5402 6.288-0.8174 7.25-0.8083 2.806 1.192 2.015 2.527-1 0.6697-1.512 2.654-4.887 4.41-7.498 2.412-3.586 3.817-4.749 5.743-4.75 3.471-3e-3 4.95 1.745 4.95 5.848v3.45l3.16-4.4c1.738-2.42 3.651-4.731 4.25-5.135 2.166-1.46 7.279-0.7659 9.09 1.235 1.654 1.827 1.738 3.187 0.9718 15.75-0.4611 7.562-0.7872 15.89-0.7246 18.5 0.1035 4.327-0.092 4.75-2.194 4.75-4.02 0-4.882-2.235-4.149-10.76 1.557-18.1 1.804-25.43 0.8889-26.35-1.881-1.881-4.306 0.409-7.774 7.341-3.433 6.862-3.519 7.327-3.519 18.9 0 11.83-0.01 11.87-2.378 11.87-4.453 0-4.794-1.616-4.028-19.06 0.8448-19.22 0.3101-19.78-6.566-6.86-4.028 7.57-4.533 9.275-5.004 16.92-0.4653 7.543-0.7494 8.529-2.524 8.756-1.1 0.1406-2.602-0.1356-3.339-0.6138zm128.1-1.261c-4.622-2.288-6.544-4.741-5.298-6.758 0.6075-0.9829 1.552-0.8021 4.18 0.8002 6.013 3.666 11.06 2.322 13.54-3.607 2.628-6.288 0.1333-12.57-8.66-21.81-7.151-7.515-7.981-9.133-7.981-15.55 0-12.28 10.13-19.31 20.63-14.32 3.595 1.706 5.885 4.721 4.854 6.39-0.9151 1.481-2.405 1.189-5.214-1.021-3.768-2.964-7.61-2.577-10.68 1.077-2.783 3.307-3.34 7.609-1.455 11.24 0.6237 1.201 3.782 4.967 7.019 8.367 7.013 7.368 9.795 13 9.825 19.87 0.028 6.363-4.038 13.3-9.244 15.77-4.6 2.183-6.346 2.116-11.51-0.4413zm30.43 0.9867c-3.468-2.016-4.661-7.116-4.58-19.59 0.094-14.43 1.405-19.66 5.035-20.08 4.116-0.4834 4.94 1.512 3.223 7.804-1.799 6.591-2.15 24.58-0.512 26.22 1.573 1.573 5.52-7.47 7.734-17.72 0.9502-4.4 2.185-8.295 2.743-8.657 1.631-1.055 5.71 1.313 6.164 3.578 0.2287 1.143 0.6766 5.454 0.9953 9.579 1.059 13.7 3.204 17.23 6.284 10.34 1.352-3.026 1.714-6.748 1.708-17.59 0-7.562 0.3328-13.75 0.7479-13.75 0.415 0 1.552 1.218 2.528 2.706 1.439 2.196 1.773 4.883 1.773 14.25 0 10.09-0.2951 12.14-2.347 16.31-2.609 5.299-4.941 7.009-8.92 6.545-3.561-0.4159-7.016-5.694-7.852-11.99-0.7274-5.483-1.156-5.353-3.907 1.183-2.72 6.465-6.301 12-7.737 11.97-0.6806-0.0167-2.067-0.5127-3.081-1.102zm40.8-0.2723c-1.666-1.217-2.012-2.897-2.312-11.2-0.4828-13.37 0.6625-26.4 2.32-26.4 3.126 0 3.626 2.841 3.633 20.64 0 9.803-0.3732 17.95-0.8372 18.1-0.464 0.1547-1.726-0.3631-2.803-1.151zm106.6-0.3467c-5.439-2.746-8.218-9.243-8.772-20.51-0.7881-16 3.704-30.71 11.88-38.88 6.854-6.854 13.96-4.446 14.25 4.827 0.1573 5.126-1.992 5.314-2.674 0.2335-0.3068-2.287-1.033-4.634-1.613-5.214-2.926-2.926-9.226 9.295-12.19 23.64-3.469 16.81-2.133 29.81 3.401 33.09 2.415 1.429 5.056-1.852 11.79-14.65 6.044-11.48 7.489-13.05 9.503-10.29 1.615 2.208 1.313 3.487-3.064 13.01-3.86 8.401-7.81 13.29-12.22 15.14-4.281 1.789-6.119 1.719-10.29-0.3875zm67.24 0.5498c-1.155-1.437 0.7313-36.39 2.082-38.58 0.4151-0.6717 1.892-1.221 3.281-1.221h2.526l-0.7028 7.5c-0.3865 4.125-0.4341 7.5-0.1056 7.5 0.3284 0 1.571-1.912 2.762-4.25 3.227-6.337 6.887-10.75 8.913-10.75 3.436 0 4.912 1.211 5.537 4.542l0.6282 3.349 3.192-4.195c3.938-5.177 9.066-6.236 12.68-2.618 2.108 2.108 2.158 2.611 1.317 13.31-0.4808 6.114-0.8785 14.38-0.8839 18.37-0.01 6.78-0.1514 7.251-2.188 7.25-4.896-2e-3 -6.491-5.341-4.33-14.5 0.5189-2.2 1.24-7.835 1.602-12.52 0.5558-7.188 0.4043-8.734-0.9673-9.872-2.26-1.876-4.011-0.2475-7.888 7.335-2.868 5.61-3.122 6.945-3.417 17.98-0.1753 6.554-0.5233 12.12-0.7733 12.37-1.06 1.06-5.35-0.921-5.811-2.683-0.2761-1.056-0.098-7.753 0.3953-14.88 0.4936-7.13 0.5187-13.99 0.056-15.24-0.8378-2.265-0.8514-2.261-3.038 0.809-4.977 6.989-8.565 16.52-9.114 24.21-0.4744 6.637-0.7761 7.534-2.624 7.798-1.148 0.164-2.557-0.286-3.131-1zm-452.2-2.982c-2.313-3.803-3.49-11.97-2.592-17.97 2.378-15.89 4.93-20.8 9.359-17.99 1.052 0.6675 0.909 2.751-0.75 10.89-3.045 14.94-2.524 23.25 1.461 23.25 2.38 0 4.19-3.843 8.186-17.38 2.893-9.8 4.353-13.24 6.104-14.4 3.94-2.598 4.584-0.463 2.678 8.879-1.855 9.095-2.378 21.1-1.074 24.65 0.7271 1.977 0.5044 2.25-1.838 2.25-2.158 0-3.017-0.7853-4.513-4.127-1.835-4.1-1.856-4.111-3.076-1.75-2.402 4.649-5.21 6.877-8.667 6.877-2.682 0-3.722-0.6272-5.277-3.184zm154.8 0.9341c-0.108-0.6875-0.2205-9.461-0.25-19.5-0.047-16.06 0.1378-18.25 1.541-18.25 2.064-3e-3 4.629 2.891 5.064 5.714 0.3389 2.202 0.3705 2.197 4.742-0.75 2.42-1.632 5.052-2.967 5.849-2.967 2.56 0 8.251 3.182 8.251 4.614 0 1.706 0.01 1.706-4.138-0.0273-4.305-1.799-6.464-0.7417-11.89 5.821l-3.975 4.81v21.78h-2.5c-1.375 0-2.588-0.5625-2.696-1.25zm125.9-41.83c-2.034-1.185-2.369-4.92-0.4412-4.92 2.393 0 5.045 2.635 4.385 4.355-0.7236 1.886-1.488 1.995-3.944 0.5645z" fill="#fff"/></g></svg>
