<svg xmlns="http://www.w3.org/2000/svg" xml:space="preserve" viewBox="0 0 511.999 511.999"><g stroke="#fff" stroke-width="6"><path d="M130.823 152.672c-31.388 0-56.925 25.537-56.925 56.926a8.987 8.987 0 0 0 17.974 0c0-21.478 17.473-38.952 38.95-38.952 21.478 0 38.952 17.473 38.952 38.952a8.987 8.987 0 0 0 17.974 0c.001-31.39-25.536-56.926-56.925-56.926zm243.503 0c-31.388 0-56.925 25.537-56.925 56.926a8.987 8.987 0 0 0 17.974 0c0-21.478 17.473-38.952 38.95-38.952 21.478 0 38.952 17.473 38.952 38.952a8.987 8.987 0 0 0 17.974 0c.001-31.39-25.536-56.926-56.925-56.926zm.474 120.816H130.349a8.987 8.987 0 0 0-8.987 8.987c0 14.401 2.325 28.57 6.909 42.114 8.775 25.914 25.187 48.129 47.458 64.239 22.456 16.263 49.028 24.86 76.845 24.86s54.389-8.596 76.841-24.856c22.275-16.113 38.688-38.328 47.462-64.243 4.585-13.543 6.909-27.712 6.909-42.114a8.986 8.986 0 0 0-8.986-8.987zM252.575 395.713c-20.941 0-41.061-5.645-58.717-16.4 7.513-8.065 18.171-12.85 29.394-12.85 8.713 0 16.995 2.74 23.953 7.926a8.988 8.988 0 0 0 10.74 0c6.957-5.185 15.236-7.926 23.941-7.926 11.218 0 21.877 4.785 29.401 12.854-17.654 10.752-37.772 16.396-58.712 16.396zm73.352-26.97c-10.939-12.671-27.045-20.255-44.042-20.255-10.435 0-20.45 2.723-29.31 7.924-8.862-5.202-18.881-7.924-29.322-7.924-17.005 0-33.112 7.588-44.035 20.251-12.399-10.52-22.277-23.431-29.139-38.046h204.99c-6.86 14.615-16.74 27.528-29.142 38.05zm39.534-77.281a112.826 112.826 0 0 1-3.741 21.258H143.429a112.826 112.826 0 0 1-3.741-21.258h225.773z"/><path d="M491.496 136.688c12.502-12.502 19.387-29.123 19.387-46.803s-6.885-34.302-19.387-46.803L451.047 2.633a8.984 8.984 0 0 0-12.709 0L397.89 43.081a67.082 67.082 0 0 0-6.603 7.689C350.131 23.464 302.38 9.077 252.577 9.077 113.921 9.077 1.116 121.882 1.116 260.538s112.805 251.461 251.461 251.461c138.649 0 251.449-112.805 251.449-251.461 0-39.296-9.252-78.162-26.797-113.027a65.984 65.984 0 0 0 14.267-10.823zm-80.897-80.897 34.094-34.094 34.094 34.094c9.107 9.107 14.122 21.214 14.122 34.094s-5.016 24.987-14.122 34.094c-18.799 18.799-49.387 18.8-68.187 0-9.107-9.107-14.122-21.214-14.122-34.094s5.015-24.987 14.121-34.094zm75.453 204.748c0 128.745-104.736 233.487-233.475 233.487-128.745 0-233.487-104.741-233.487-233.487S123.832 27.053 252.577 27.053c46.785 0 91.61 13.676 130.115 39.603a66.168 66.168 0 0 0-4.189 23.229c0 17.68 6.885 34.302 19.387 46.803 12.906 12.906 29.852 19.357 46.804 19.356a66.61 66.61 0 0 0 15.769-1.892c16.76 32.731 25.589 69.354 25.589 106.387z"/></g></svg>