<?xml version="1.0" encoding="UTF-8"?>
<svg version="1.1" viewBox="0 0 512 512" xmlns="http://www.w3.org/2000/svg"><!--! Font Awesome Pro 6.4.0 by @fontawesome - https://fontawesome.com License - https://fontawesome.com/license (Commercial License) Copyright 2023 Fonticons, Inc. --><path d="m158.29 0.050781c-2.6125-0.275-5.2871 0.098439-7.7871 1.1484-5 2.1-8.5996 6.6004-9.5996 11.9l-19.9 107.9-107.9 19.9c-5.3 1-9.8004 4.5996-11.9 9.5996-2.1 5-1.4984 10.699 1.6016 15.199l62.299 90.301-62.299 90.301c-3.1 4.5-3.7016 10.199-1.6016 15.199 2.1 5 6.6004 8.5996 11.9 9.5996l107.9 19.9 19.9 107.9c1 5.3 4.5996 9.8004 9.5996 11.9s10.699 1.4984 15.199-1.6016l90.301-62.299 90.301 62.299c4.5 3.1 10.199 3.7016 15.199 1.6016s8.5996-6.6004 9.5996-11.9l19.9-107.9 107.9-19.9c5.3-1 9.8004-4.5996 11.9-9.5996 2.1-5 1.4984-10.699-1.6016-15.199l-62.299-90.301 62.299-90.4c3.1-4.5 3.7016-10.199 1.6016-15.199-2.1-5-6.6004-8.5996-11.9-9.5996l-107.9-19.801-19.9-107.9c-1-5.3-4.5996-9.8004-9.5996-11.9-5-2.1-10.699-1.4984-15.199 1.6016l-90.301 62.299-90.301-62.299c-2.25-1.55-4.7996-2.475-7.4121-2.75zm10.799 149.66c3.9465 0 7.6248 0.80547 11.033 2.4199 3.5878 1.4351 6.637 3.4986 9.1484 6.1894 2.6908 2.5114 4.7544 5.5607 6.1894 9.1484 1.6145 3.4084 2.4199 7.0867 2.4199 11.033v19.373c0 3.9465-0.80544 7.7111-2.4199 11.299-1.4351 3.4084-3.4085 6.4576-5.9199 9.1484-2.5114 2.6908-5.5607 4.8445-9.1484 6.459-3.5877 1.4351-7.3562 2.1562-11.303 2.1562-4.1259-1e-5 -7.9826-0.72116-11.57-2.1562-3.4083-1.6145-6.4576-3.6761-9.1484-6.1875-2.5114-2.6908-4.575-5.7421-6.1895-9.1504-1.4351-3.5878-2.1504-7.4425-2.1504-11.568v-19.373c0-3.9465 0.71531-7.715 2.1504-11.303 1.6145-3.5877 3.7682-6.639 6.459-9.1504 2.6908-2.5114 5.7401-4.4829 9.1484-5.918 3.5877-1.6145 7.3543-2.4199 11.301-2.4199zm173.82 0c3.9465 0 7.6268 0.80547 11.035 2.4199 3.5878 1.4351 6.7272 3.4065 9.418 5.918 2.6908 2.5114 4.7544 5.5627 6.1894 9.1504 1.6145 3.5877 2.4199 7.3562 2.4199 11.303v19.373c0 4.1259-0.80543 7.9806-2.4199 11.568-1.4351 3.4083-3.4986 6.4596-6.1894 9.1504-2.5114 2.5114-5.5607 4.573-9.1484 6.1875-3.5877 1.4351-7.3582 2.1562-11.305 2.1562-4.1259 0-7.9806-0.72116-11.568-2.1562-3.4084-1.6145-6.3675-3.7682-8.8789-6.459-2.5114-2.6908-4.575-5.7401-6.1894-9.1484-1.4351-3.5877-2.1504-7.3523-2.1504-11.299v-19.373c0-3.9465 0.71531-7.6248 2.1504-11.033 1.6145-3.5878 3.678-6.637 6.1894-9.1484 2.6908-2.6908 5.7401-4.7544 9.1484-6.1894 3.5877-1.6145 7.3523-2.4199 11.299-2.4199zm-125.66 77.492h77.492c0 5.3816-1.0778 10.404-3.2305 15.068-1.9732 4.664-4.7502 8.7892-8.3379 12.377-3.4083 3.4084-7.4453 6.1911-12.109 8.3438-4.664 1.9732-9.6868 2.9609-15.068 2.9609-5.3816 0-10.404-0.98769-15.068-2.9609-4.6641-2.1526-8.7912-4.9354-12.379-8.3438-3.4083-3.5877-6.1872-7.7129-8.3398-12.377-1.9733-4.664-2.959-9.6868-2.959-15.068zm-19.107 77.225c3.9465 0 7.715 1.2581 11.303 3.7695 14.172 10.046 29.688 15.068 46.551 15.068 8.79 0 16.862-1.2581 24.217-3.7695 7.5342-2.5114 14.887-6.276 22.062-11.299 3.5877-2.5114 7.4483-3.7695 11.574-3.7695 5.561 0 10.221 1.8872 13.988 5.6543 3.7671 3.7671 5.6543 8.343 5.6543 13.725 0 3.0496-0.7192 5.9186-2.1543 8.6094-1.4351 2.5114-3.3184 4.7514-5.6504 6.7246-9.6869 7.5342-20.628 13.276-32.826 17.223-12.198 3.9465-24.488 5.918-36.865 5.918-12.378 0-24.667-1.9715-36.865-5.918-12.019-3.9465-22.96-9.6884-32.826-17.223-2.5114-1.9733-4.4848-4.2132-5.9199-6.7246-1.2557-2.6908-1.8848-5.5598-1.8848-8.6094 0-5.3816 1.8833-9.9575 5.6504-13.725 3.9465-3.7671 8.6106-5.6543 13.992-5.6543z"/></svg>
